<svg xmlns="http://www.w3.org/2000/svg" width="55.813" height="74.417" viewBox="0 0 55.813 74.417"><defs><style>.a{fill:#fff;}</style></defs><path class="a" d="M26.438,37.223c-.727-2.326-.712-6.817-.291-6.817C27.368,30.406,27.252,35.769,26.438,37.223Zm-.247,6.86A67.067,67.067,0,0,1,22.063,53.2c2.66-1.017,5.668-2.5,9.142-3.183A18.828,18.828,0,0,1,26.191,44.083ZM12.514,62.222c0,.116,1.919-.785,5.073-5.843C16.613,57.3,13.357,59.94,12.514,62.222ZM36.046,23.255H55.813V70.928a3.48,3.48,0,0,1-3.488,3.488H3.488A3.48,3.48,0,0,1,0,70.928V3.488A3.48,3.48,0,0,1,3.488,0H32.557V19.767A3.5,3.5,0,0,0,36.046,23.255Zm-1.163,24.97a14.588,14.588,0,0,1-6.206-7.82c.654-2.689,1.686-6.773.9-9.331-.683-4.273-6.163-3.852-6.947-.988-.727,2.66-.058,6.41,1.177,11.192a136.484,136.484,0,0,1-5.93,12.471c-.015,0-.015.015-.029.015-3.939,2.02-10.7,6.468-7.921,9.883A4.516,4.516,0,0,0,13.052,65.1c2.6,0,5.189-2.616,8.881-8.982,3.75-1.235,7.863-2.776,11.482-3.372a22.027,22.027,0,0,0,9.3,2.834c4.244,0,4.535-4.651,2.863-6.308-2.02-1.977-7.892-1.41-10.7-1.046ZM54.8,15.261,40.551,1.017A3.486,3.486,0,0,0,38.08,0h-.872V18.6h18.6v-.887A3.477,3.477,0,0,0,54.8,15.261ZM44.025,52.368c.6-.392-.363-1.73-6.221-1.308C43.2,53.356,44.025,52.368,44.025,52.368Z"/></svg>