<svg xmlns="http://www.w3.org/2000/svg" width="111.333" height="45.826" viewBox="0 0 111.333 45.826"><g transform="translate(-4.667 113.413)"><text transform="translate(45 -86)" fill="#fff" font-size="12" font-family="Poppins-SemiBold, Poppins" font-weight="600"><tspan x="0" y="0">Yearn Cash</tspan></text><g transform="translate(4.667 -113.413)"><path d="M-1024.386,181.189c-.306.444-.6.849-.873,1.269a19.066,19.066,0,0,0-2.1,4.392c-.245.744-.415,1.514-.589,2.279a16.589,16.589,0,0,0-.412,4.369,22.981,22.981,0,0,0,.312,2.949,22.209,22.209,0,0,0,.69,2.874,17.8,17.8,0,0,0,1.875,4.048,19.768,19.768,0,0,0,9.37,8,17.633,17.633,0,0,0,3.793,1.121,1.207,1.207,0,0,1,.937,1.481,1.185,1.185,0,0,1-1.422.783,22.184,22.184,0,0,1-7.649-3.06,22.05,22.05,0,0,1-5.432-4.909,21.727,21.727,0,0,1-2.687-4.333,19.3,19.3,0,0,1-1.417-4.024c-.167-.767-.3-1.541-.442-2.313a18.755,18.755,0,0,1-.179-4.477,22.991,22.991,0,0,1,.4-2.879,21.278,21.278,0,0,1,3.583-8.381c.231-.331.473-.654.727-.968a.262.262,0,0,0,0-.382c-.991-1.375-1.965-2.762-2.963-4.131a1.163,1.163,0,0,1,.742-1.825,1.137,1.137,0,0,1,1.127.484c.575.783,1.13,1.58,1.7,2.37q1.591,2.224,3.184,4.446,2.006,2.807,4.009,5.616t4.017,5.607q2.032,2.839,4.061,5.68c.694.968,1.4,1.926,2.094,2.895a1.4,1.4,0,0,1,.265.928c-.024.375-.022.753-.022,1.13q0,6.592,0,13.185a1.306,1.306,0,0,1-.552,1.269,1.158,1.158,0,0,1-1.759-.928c-.013-.238,0-.478,0-.717q0-6.73-.008-13.461a1.02,1.02,0,0,0-.168-.553c-1.269-1.8-2.552-3.582-3.831-5.371l-6.236-8.721q-1.935-2.705-3.871-5.409C-1024.186,181.422-1024.272,181.329-1024.386,181.189Z" transform="translate(1030.664 -171.028)" fill="#fff"/><path d="M-986.958,165.146c.553-.315,1.072-.627,1.605-.912a21.522,21.522,0,0,1,5.837-2.1,21.586,21.586,0,0,1,5.508-.435,22.056,22.056,0,0,1,9.273,2.544,22.311,22.311,0,0,1,5.487,4.114,1.162,1.162,0,0,1-.141,1.885,1.13,1.13,0,0,1-1.372-.151c-.8-.718-1.574-1.465-2.419-2.124a18.8,18.8,0,0,0-6.175-3.147,19.436,19.436,0,0,0-5.567-.831,19.771,19.771,0,0,0-3.863.353,19.767,19.767,0,0,0-6.492,2.491c-.336.2-.336.2-.1.526q2.813,3.919,5.624,7.839,2.067,2.882,4.132,5.766c.159.222.317.446.51.718.142-.211.27-.392.39-.579q1.967-3.062,3.932-6.126,2.032-3.167,4.062-6.335a1.176,1.176,0,0,1,1.544-.5,1.169,1.169,0,0,1,.437,1.678q-1.787,2.8-3.589,5.594-1.943,3.028-3.887,6.057c-.559.87-1.111,1.746-1.688,2.6a2.268,2.268,0,0,1-.657.708,1.153,1.153,0,0,1-1.537-.5c-.711-1.023-1.436-2.036-2.16-3.05q-2.029-2.84-4.065-5.676-1.916-2.67-3.837-5.335c-1.133-1.578-2.257-3.161-3.4-4.735a1.166,1.166,0,0,1,.73-1.886,1.081,1.081,0,0,1,1.061.45C-987.5,164.4-987.238,164.765-986.958,165.146Z" transform="translate(997.107 -161.669)" fill="#fff"/><path d="M-878.476,347.726a3.392,3.392,0,0,1-.28.64,21.732,21.732,0,0,1-4.154,4.416,22.06,22.06,0,0,1-5.68,3.319,22.958,22.958,0,0,1-4.252,1.212,1.305,1.305,0,0,1-1.327-.354,1.12,1.12,0,0,1,.535-1.826c.648-.164,1.311-.273,1.958-.44a19.307,19.307,0,0,0,5.526-2.408,18.9,18.9,0,0,0,3.866-3.209c.574-.628,1.094-1.307,1.614-1.981a1.2,1.2,0,0,1,1.293-.508A1.253,1.253,0,0,1-878.476,347.726Z" transform="translate(918.775 -313.533)" fill="#fff"/></g></g></svg>